<svg id="Ebene_1" data-name="Ebene 1" xmlns="http://www.w3.org/2000/svg" xmlns:xlink="http://www.w3.org/1999/xlink" viewBox="0 0 935 139"><defs><style>.cls-1,.cls-2{fill-rule:evenodd;}.cls-1{fill:url(#Unbenannter_Verlauf_3);}.cls-2{fill:url(#Unbenannter_Verlauf_3-2);}</style><linearGradient id="Unbenannter_Verlauf_3" x1="-3435.56" y1="-209.27" x2="-3595.07" y2="-485.55" gradientTransform="matrix(1, 0, 0, -1, 3772.56, -316.64)" gradientUnits="userSpaceOnUse"><stop offset="0" stop-color="#ff48a5"/><stop offset="0.99" stop-color="#520880"/><stop offset="1" stop-color="#520880"/></linearGradient><linearGradient id="Unbenannter_Verlauf_3-2" x1="-3176.34" y1="-189.37" x2="-3440.33" y2="-646.61" xlink:href="#Unbenannter_Verlauf_3"/></defs><title>Zeichenfläche 6</title><path class="cls-1" d="M225.8,15.49A10.48,10.48,0,0,0,217,19.77Q213.84,24,213.8,31.62T217,43.46a10.48,10.48,0,0,0,8.84,4.28,10.36,10.36,0,0,0,8.74-4.28q3.11-4.22,3.15-11.84t-3.15-11.85A10.36,10.36,0,0,0,225.8,15.49ZM80.55,10.31A27.44,27.44,0,0,1,81.68,15,33.49,33.49,0,0,1,82,19.91a36.05,36.05,0,0,1-.56,6.29,32.83,32.83,0,0,1-1.64,5.94l-2.21,5.72h13l-10-27.55Zm394.74-.74h9.91l25,43.7h.12a69.63,69.63,0,0,1-5.48-13.21,44.74,44.74,0,0,1-2-12.32V9.57h7.86V53.71h-8.51L483,20l.12,33.7h-7.82Zm-18.08,0h8.3V53.71h-8.3Zm-38.81,0h30.81v6.37H426.55V33.42h.12a6.68,6.68,0,0,1,2.3-4.27,7.55,7.55,0,0,1,4.87-1.51h13.3V34H426.7V47.34H450v6.37H418.4Zm-52.89,0h34.08v6.37H378.84v.12A9.48,9.48,0,0,1,384.72,19a9,9,0,0,1,2.12,6.12V53.71h-8.29V15.94h-13Zm-35,0h30.81v6.37H338.7V33.42h.12a6.71,6.71,0,0,1,2.29-4.27A7.6,7.6,0,0,1,346,27.64h13.3V34H338.85V47.34H362.1v6.37H330.55Zm-40,0h34.07v6.37H303.88v.12A9.42,9.42,0,0,1,309.75,19a8.93,8.93,0,0,1,2.13,6.12V53.71h-8.29V15.94h-13Zm-126.22,0h8V30.46h.12L191.53,9.57h9.33L181.35,30.63l22,23.08h-10L172.45,30.9h-.12V53.71h-8Zm-84.08,0h7.82l17.06,44.14H96.39L93,44.38H75.1l-3.65,9.33H63.19Zm-77.46,0H11.2l8.71,32.27L28.74,9.57h7.75l8.77,32.21L54,9.57H62L48.61,53.71H41.09L29,10.45l-.12.06a48.68,48.68,0,0,1,1.26,6.2,47.56,47.56,0,0,1,.41,6.16,41.8,41.8,0,0,1-.37,5.57A40.46,40.46,0,0,1,29,34L23.25,53.71H15.79ZM269.07,9c4.91,0,8.85,1.4,11.79,4.08s4.66,6.45,5.12,11.33H277.8a9.7,9.7,0,0,0-2.69-6.51,9,9,0,0,0-6.46-2.33,10.1,10.1,0,0,0-6.07,1.61,5.3,5.3,0,0,0-2.18,4.48,4.5,4.5,0,0,0,3.14,4.31,30.41,30.41,0,0,0,7.26,1.67,51.43,51.43,0,0,1,7.57,1.49,13.57,13.57,0,0,1,6.22,3.59q2.49,2.56,2.58,7.59-.06,6.69-4.77,10.37t-13.33,3.73c-5.36,0-9.62-1.44-12.79-4.23s-5-6.73-5.43-11.84H259a10.51,10.51,0,0,0,3.1,7,10.23,10.23,0,0,0,7.18,2.51q4.56,0,7-1.78a5.72,5.72,0,0,0,2.52-4.91,5.16,5.16,0,0,0-3.35-5,29,29,0,0,0-7.71-1.8,48.38,48.38,0,0,1-7.31-1.4,12.74,12.74,0,0,1-5.95-3.41q-2.36-2.43-2.45-7.26.06-6.48,4.5-9.86T269.07,9Zm-43.27,0q9.66.09,15,6t5.42,16.7q-.09,10.79-5.42,16.69t-15,6q-9.75-.07-15.1-6t-5.43-16.69q.07-10.78,5.43-16.7T225.8,8.93ZM126,9q7.37.06,11.8,4.08t5.11,11.33h-8.18A9.66,9.66,0,0,0,132,17.87a9,9,0,0,0-6.46-2.33,10.1,10.1,0,0,0-6.07,1.61,5.33,5.33,0,0,0-2.18,4.48,4.5,4.5,0,0,0,3.14,4.31,30.41,30.41,0,0,0,7.26,1.67,51.43,51.43,0,0,1,7.57,1.49,13.57,13.57,0,0,1,6.22,3.59q2.49,2.56,2.58,7.59Q144,47,139.29,50.65T126,54.38c-5.36,0-9.62-1.44-12.79-4.23s-5-6.73-5.43-11.84h8.12a10.51,10.51,0,0,0,3.1,7,10.25,10.25,0,0,0,7.18,2.51,12.27,12.27,0,0,0,7-1.78,5.73,5.73,0,0,0,2.51-4.91,5.16,5.16,0,0,0-3.35-5,29,29,0,0,0-7.71-1.8,48.38,48.38,0,0,1-7.31-1.4,12.66,12.66,0,0,1-5.94-3.41q-2.37-2.43-2.46-7.26.06-6.48,4.5-9.86T126,9Z"/><path class="cls-2" d="M910.69,117h8.74v8.45h-8.74ZM521.51,87.64v.12a8.51,8.51,0,0,1,7.85,9v5.8h8.52a7.26,7.26,0,0,0,5.38-2,8.74,8.74,0,0,0,0-11,7.23,7.23,0,0,0-5.4-2Zm-226.07,0v13.93h9.36a8.17,8.17,0,0,0,5.67-1.88,6.79,6.79,0,0,0,2-5.21,6.45,6.45,0,0,0-2-5,8.35,8.35,0,0,0-5.67-1.82ZM70.25,87.2a10.5,10.5,0,0,0-8.85,4.27q-3.12,4.22-3.16,11.85t3.16,11.84a10.51,10.51,0,0,0,8.85,4.28A10.37,10.37,0,0,0,79,115.16q3.11-4.22,3.14-11.84T79,91.47A10.36,10.36,0,0,0,70.25,87.2Zm744-5.93h9.91l25,43.7h.12a69.63,69.63,0,0,1-5.48-13.21,44.31,44.31,0,0,1-2-12.32V81.27h7.85v44.15h-8.51L822,91.71l.12,33.71h-7.82Zm-18.08,0h8.3v44.15h-8.3Zm-40,0h34.08v6.37H769.51v.12a9.53,9.53,0,0,1,5.87,2.89,9,9,0,0,1,2.13,6.12v28.65h-8.3V87.64h-13Zm-75.7,0h30.82v6.37H688.62v17.48h.12a6.65,6.65,0,0,1,2.3-4.26,7.56,7.56,0,0,1,4.87-1.52h13.3v6.37H688.77v13.34H712v6.37H680.47Zm-40,0h34.07v6.37H653.8v.12a9.53,9.53,0,0,1,5.88,2.89,9,9,0,0,1,2.12,6.12v28.65h-8.29V87.64h-13Zm-41.48,0h9.91l25,43.7H634a70.29,70.29,0,0,1-5.48-13.21,44.28,44.28,0,0,1-2-12.32V81.27h7.85v44.15h-8.51l-19.2-33.71.12,33.71H599Zm-38.67,0h30.82v6.37H568.47v17.48h.12a6.7,6.7,0,0,1,2.3-4.26,7.56,7.56,0,0,1,4.87-1.52h13.3v6.37H568.62v13.34h23.26v6.37H560.32Zm-39.25,0h16.48q7.71,0,12,3.65t4.29,10.2q-.06,6.59-4.3,10.2t-12,3.65h-8.13v16.45h-8.29Zm-92.6,0h30.82v6.37H436.62v17.48h.12a6.7,6.7,0,0,1,2.3-4.26,7.56,7.56,0,0,1,4.87-1.52h13.3v6.37H436.77v13.34H460v6.37H428.47Zm-63.4,0h8.29v44.15h-8.29Zm-40,0h34.07v6.37H338.4v.12a9.48,9.48,0,0,1,5.87,2.89,8.93,8.93,0,0,1,2.13,6.12v28.65h-8.3V87.64h-13Zm-37.93,0H304.3c5.24,0,9.32,1.14,12.21,3.34a11.06,11.06,0,0,1,4.41,9.25q-.06,6.44-4.34,10t-12.1,3.57v.09a13.85,13.85,0,0,1,6.63,1.63,11.65,11.65,0,0,1,4.67,4.59l6.59,11.71h-9.15l-9.57-17.93h-8.21v17.93h-8.3Zm-38.66,0h30.81v6.37H256.62v17.48h.12a6.7,6.7,0,0,1,2.3-4.26,7.58,7.58,0,0,1,4.87-1.52h13.31v6.37H256.77v13.34H280v6.37H248.48Zm-64.95,0h8.41l8.71,32.27,8.83-32.27h7.75L226,113.48l8.77-32.21h7.94l-13.37,44.15h-7.51L209.72,82.16l-.12.06a48.33,48.33,0,0,1,1.26,6.2,47.41,47.41,0,0,1,.41,6.15,40.46,40.46,0,0,1-.38,5.58,39.59,39.59,0,0,1-1.17,5.58L204,125.42h-7.46Zm-41.42,0h8.29v24h.12A6.75,6.75,0,0,1,152.8,101a7.46,7.46,0,0,1,4.84-1.54h11.73V81.27h8.14v44.15h-8.14V106h-19v19.41h-8.29ZM6.7,81.27H15v24h.12A6.66,6.66,0,0,1,17.4,101a7.42,7.42,0,0,1,4.84-1.54H34V81.27h8.15v44.15H34V106H15v19.41H6.7Zm909.78-.68q6.9,0,10.69,3.25t3.83,9a17.9,17.9,0,0,1-3.14,9.21,43.53,43.53,0,0,1-8.76,9.75h-7.52v-.12a44.68,44.68,0,0,0,7.86-9.51,17.58,17.58,0,0,0,2.84-8.61,6.67,6.67,0,0,0-1.62-4.68,6.5,6.5,0,0,0-9.2.39,9.52,9.52,0,0,0-2,5.79h-7.82q.5-6.87,4.33-10.64T916.48,80.59Zm-38.71.11q7.9.06,12.77,4.44t5.92,12.28h-8A12.89,12.89,0,0,0,884.83,90a10.1,10.1,0,0,0-7.1-2.7A10.43,10.43,0,0,0,869,91.56q-3.09,4.22-3.13,11.8t3.08,11.8a10.12,10.12,0,0,0,8.57,4.26,10.65,10.65,0,0,0,8-3.12c1.94-2.06,3-4.94,3.22-8.66H877.06v-5.48h19.7v23.26h-7.7V109.71h-.12q0,7.77-4,12t-11.17,4.32a14.24,14.24,0,0,1-12-6q-4.34-5.91-4.4-16.69t5.39-16.7Q868.08,80.78,877.77,80.7Zm-143.08,0q7.38.06,11.8,4.08t5.11,11.33h-8.18a9.65,9.65,0,0,0-2.69-6.5,9,9,0,0,0-6.46-2.34,10.12,10.12,0,0,0-6.07,1.61A5.34,5.34,0,0,0,726,93.34a4.52,4.52,0,0,0,3.14,4.31,30.65,30.65,0,0,0,7.27,1.66A52.9,52.9,0,0,1,744,100.8a13.5,13.5,0,0,1,6.22,3.6Q752.7,107,752.8,112q-.07,6.69-4.78,10.37t-13.33,3.73c-5.36,0-9.62-1.44-12.78-4.23s-5-6.72-5.44-11.84h8.12a10.55,10.55,0,0,0,3.1,7,10.25,10.25,0,0,0,7.18,2.51,12.27,12.27,0,0,0,7-1.77,5.75,5.75,0,0,0,2.52-4.92,5.18,5.18,0,0,0-3.36-5,28.53,28.53,0,0,0-7.7-1.79,49.81,49.81,0,0,1-7.32-1.41,12.76,12.76,0,0,1-5.94-3.41c-1.58-1.62-2.39-4-2.45-7.26q.06-6.47,4.5-9.85T734.69,80.67Zm-252,0q7.37.06,11.79,4.08t5.11,11.33h-8.18a9.61,9.61,0,0,0-2.69-6.5,9,9,0,0,0-6.45-2.34,10.13,10.13,0,0,0-6.08,1.61A5.34,5.34,0,0,0,474,93.34a4.5,4.5,0,0,0,3.14,4.31,30.44,30.44,0,0,0,7.26,1.66A52.63,52.63,0,0,1,492,100.8a13.44,13.44,0,0,1,6.22,3.6Q500.7,107,500.8,112q-.06,6.69-4.77,10.37t-13.33,3.73c-5.37,0-9.63-1.44-12.79-4.23s-5-6.72-5.44-11.84h8.13a10.5,10.5,0,0,0,3.09,7,10.27,10.27,0,0,0,7.19,2.51,12.26,12.26,0,0,0,7-1.77,5.75,5.75,0,0,0,2.52-4.92,5.18,5.18,0,0,0-3.36-5,28.44,28.44,0,0,0-7.7-1.79,49.43,49.43,0,0,1-7.31-1.41,12.74,12.74,0,0,1-5.95-3.41q-2.36-2.43-2.45-7.26.06-6.47,4.5-9.85T482.7,80.67Zm-81.37,0q7.91.06,12.77,4.44T420,97.42h-8A12.89,12.89,0,0,0,408.39,90a10.1,10.1,0,0,0-7.1-2.7,10.4,10.4,0,0,0-8.75,4.26q-3.1,4.22-3.14,11.8t3.08,11.8a10.13,10.13,0,0,0,8.58,4.26,10.67,10.67,0,0,0,8-3.12c1.94-2.06,3-4.94,3.21-8.66H400.62v-5.48h19.71v23.26h-7.71V109.71h-.11q-.06,7.77-4,12t-11.17,4.32a14.24,14.24,0,0,1-12-6q-4.33-5.91-4.4-16.69t5.39-16.7Q391.64,80.78,401.33,80.7Zm-285.19.09q8,.06,12.88,4.55T135.09,98h-7.84a14.23,14.23,0,0,0-3.82-7.87,10.89,10.89,0,0,0-15.94,1.43q-3.08,4.2-3.12,11.79t3.12,11.79a10.26,10.26,0,0,0,8.65,4.25,10.07,10.07,0,0,0,7.31-2.87,14.49,14.49,0,0,0,3.8-8h7.84Q134,116.75,129,121.31c-3.29,3-7.58,4.58-12.88,4.62q-9.61-.08-14.9-6t-5.36-16.61q.08-10.74,5.36-16.61T116.14,80.79Zm-45.89-.15q9.66.08,15,6t5.41,16.69q-.07,10.79-5.41,16.69t-15,6q-9.75-.07-15.11-6t-5.43-16.69q.07-10.78,5.43-16.69T70.25,80.64Z"/></svg>